<svg width="173" height="56" viewBox="0 0 173 56" fill="none" xmlns="http://www.w3.org/2000/svg">
<rect width="172.631" height="56" rx="10" fill="black"/>
<path d="M34.7569 28.6679C34.7726 27.4459 35.0972 26.2478 35.7004 25.1851C36.3036 24.1223 37.1658 23.2294 38.2069 22.5893C37.5455 21.6448 36.6731 20.8676 35.6588 20.3192C34.6445 19.7709 33.5163 19.4666 32.3639 19.4306C29.9055 19.1725 27.5222 20.9016 26.2695 20.9016C24.9925 20.9016 23.0637 19.4562 20.9867 19.4989C19.6433 19.5423 18.334 19.933 17.1864 20.6328C16.0388 21.3327 15.0921 22.3179 14.4385 23.4924C11.6072 28.3944 13.7191 35.5987 16.4313 39.5612C17.7882 41.5014 19.3741 43.6688 21.4492 43.5919C23.4799 43.5077 24.2383 42.2971 26.6894 42.2971C29.1178 42.2971 29.8293 43.5919 31.9465 43.543C34.1255 43.5077 35.4983 41.5941 36.8077 39.6355C37.7826 38.253 38.5329 36.725 39.0306 35.1081C37.7647 34.5727 36.6844 33.6765 35.9244 32.5312C35.1644 31.386 34.7584 30.0423 34.7569 28.6679Z" fill="white"/>
<path d="M30.7579 16.8245C31.9459 15.3983 32.5312 13.5652 32.3895 11.7144C30.5744 11.905 28.8978 12.7725 27.6937 14.144C27.105 14.814 26.6541 15.5935 26.3668 16.4378C26.0795 17.2822 25.9614 18.1749 26.0193 19.065C26.9272 19.0743 27.8254 18.8775 28.6462 18.4895C29.4669 18.1014 30.189 17.5321 30.7579 16.8245Z" fill="white"/>
<path d="M60.4254 38.6797H53.4958L51.8317 43.5935H48.8966L55.4602 25.4138H58.5097L65.0732 43.5935H62.0881L60.4254 38.6797ZM54.2135 36.4123H59.7064L56.9986 28.4376H56.9228L54.2135 36.4123Z" fill="white"/>
<path d="M79.2484 36.9671C79.2484 41.0859 77.0438 43.7322 73.717 43.7322C72.8742 43.7763 72.0361 43.5822 71.2986 43.1721C70.561 42.7619 69.9539 42.1524 69.5467 41.4133H69.4837V47.9783H66.7631V30.3391H69.3965V32.5437H69.4466C69.8725 31.8081 70.4899 31.2017 71.2331 30.7891C71.9763 30.3765 72.8174 30.173 73.667 30.2004C77.0309 30.2005 79.2484 32.8596 79.2484 36.9671ZM76.4519 36.9671C76.4519 34.2836 75.0651 32.5194 72.9493 32.5194C70.8705 32.5194 69.4723 34.3207 69.4723 36.9671C69.4723 39.6377 70.8705 41.4262 72.9493 41.4262C75.0652 41.4262 76.4519 39.6748 76.4519 36.9671Z" fill="white"/>
<path d="M93.8366 36.9673C93.8366 41.0862 91.6321 43.7324 88.3052 43.7324C87.4625 43.7765 86.6244 43.5824 85.8868 43.1723C85.1493 42.7622 84.5422 42.1527 84.1349 41.4135H84.072V47.9785H81.3513V30.3394H83.9847V32.5439H84.0348C84.4607 31.8083 85.0781 31.2019 85.8213 30.7893C86.5645 30.3767 87.4056 30.1733 88.2552 30.2007C91.6192 30.2007 93.8366 32.8599 93.8366 36.9673ZM91.0402 36.9673C91.0402 34.2838 89.6534 32.5196 87.5375 32.5196C85.4588 32.5196 84.0606 34.321 84.0606 36.9673C84.0606 39.6379 85.4588 41.4264 87.5375 41.4264C89.6534 41.4264 91.0402 39.6751 91.0402 36.9673H91.0402Z" fill="white"/>
<path d="M103.478 38.5283C103.68 40.3311 105.431 41.5148 107.824 41.5148C110.118 41.5148 111.767 40.3311 111.767 38.7055C111.767 37.2944 110.772 36.4495 108.416 35.8705L106.06 35.3029C102.722 34.4966 101.172 32.9354 101.172 30.402C101.172 27.2653 103.906 25.1108 107.787 25.1108C111.629 25.1108 114.262 27.2653 114.351 30.402H111.604C111.44 28.5878 109.94 27.4927 107.749 27.4927C105.557 27.4927 104.057 28.6007 104.057 30.2133C104.057 31.4986 105.015 32.2549 107.358 32.8338L109.361 33.3256C113.091 34.2077 114.641 35.7061 114.641 38.3652C114.641 41.7664 111.932 43.8966 107.623 43.8966C103.591 43.8966 100.869 41.8164 100.693 38.5282L103.478 38.5283Z" fill="white"/>
<path d="M120.513 27.2026V30.3393H123.033V32.4938H120.513V39.8008C120.513 40.936 121.017 41.465 122.125 41.465C122.425 41.4597 122.723 41.4387 123.02 41.402V43.5436C122.522 43.6367 122.016 43.6789 121.509 43.6695C118.826 43.6695 117.779 42.6615 117.779 40.091V32.4938H115.852V30.3393H117.779V27.2026H120.513Z" fill="white"/>
<path d="M124.493 36.9672C124.493 32.7968 126.949 30.1763 130.779 30.1763C134.622 30.1763 137.067 32.7968 137.067 36.9672C137.067 41.1489 134.635 43.7581 130.779 43.7581C126.925 43.7581 124.493 41.1489 124.493 36.9672ZM134.295 36.9672C134.295 34.1064 132.984 32.418 130.779 32.418C128.575 32.418 127.265 34.1193 127.265 36.9672C127.265 39.8394 128.575 41.5149 130.779 41.5149C132.984 41.5149 134.295 39.8394 134.295 36.9672H134.295Z" fill="white"/>
<path d="M139.31 30.3392H141.905V32.5952H141.968C142.143 31.8906 142.556 31.268 143.137 30.8319C143.717 30.3958 144.43 30.1728 145.156 30.2005C145.469 30.1995 145.782 30.2335 146.088 30.3021V32.8469C145.692 32.7259 145.279 32.6704 144.866 32.6825C144.47 32.6664 144.076 32.7361 143.711 32.8867C143.345 33.0374 143.016 33.2653 142.747 33.5551C142.477 33.8448 142.274 34.1893 142.15 34.5651C142.027 34.9408 141.986 35.3389 142.031 35.7319V43.5936H139.31L139.31 30.3392Z" fill="white"/>
<path d="M158.632 39.7007C158.266 42.1068 155.923 43.7581 152.925 43.7581C149.069 43.7581 146.676 41.1747 146.676 37.0301C146.676 32.8726 149.082 30.1763 152.81 30.1763C156.477 30.1763 158.783 32.6953 158.783 36.7141V37.6463H149.422V37.8107C149.379 38.2985 149.44 38.7899 149.601 39.2523C149.762 39.7146 150.02 40.1374 150.357 40.4925C150.695 40.8476 151.104 41.1268 151.557 41.3118C152.011 41.4967 152.498 41.583 152.988 41.565C153.63 41.6252 154.276 41.4763 154.827 41.1404C155.379 40.8045 155.807 40.2996 156.048 39.7007L158.632 39.7007ZM149.435 35.7448H156.061C156.086 35.3062 156.019 34.8673 155.866 34.4556C155.713 34.0439 155.476 33.6684 155.171 33.3525C154.865 33.0366 154.498 32.7872 154.092 32.62C153.686 32.4528 153.249 32.3714 152.81 32.3808C152.367 32.3782 151.928 32.4633 151.518 32.6313C151.108 32.7992 150.735 33.0468 150.422 33.3595C150.108 33.6723 149.859 34.0441 149.69 34.4535C149.52 34.8629 149.434 35.3018 149.435 35.7448V35.7448Z" fill="white"/>
<path d="M53.8724 11.7304C54.4428 11.6894 55.0152 11.7756 55.5482 11.9827C56.0813 12.1897 56.5617 12.5125 56.9549 12.9277C57.3481 13.3429 57.6443 13.8402 57.822 14.3838C57.9997 14.9273 58.0546 15.5035 57.9827 16.0708C57.9827 18.8615 56.4744 20.4657 53.8724 20.4657H50.7172V11.7304H53.8724ZM52.0739 19.2303H53.7209C54.1285 19.2547 54.5363 19.1879 54.9148 19.0347C55.2933 18.8815 55.6329 18.6459 55.9089 18.345C56.1848 18.044 56.3902 17.6854 56.51 17.295C56.6299 16.9047 56.6612 16.4926 56.6016 16.0886C56.6568 15.6863 56.6224 15.2767 56.5007 14.8892C56.379 14.5018 56.1731 14.146 55.8978 13.8475C55.6225 13.5489 55.2845 13.315 54.9082 13.1624C54.5318 13.0098 54.1264 12.9423 53.7209 12.9648H52.0739V19.2303Z" fill="white"/>
<path d="M59.5153 17.1665C59.4739 16.7333 59.5234 16.2962 59.6608 15.8832C59.7982 15.4703 60.0204 15.0906 60.3131 14.7686C60.6058 14.4465 60.9626 14.1892 61.3606 14.0131C61.7585 13.8371 62.1889 13.7461 62.6241 13.7461C63.0593 13.7461 63.4897 13.8371 63.8877 14.0131C64.2857 14.1892 64.6425 14.4465 64.9352 14.7686C65.2279 15.0906 65.4501 15.4703 65.5874 15.8832C65.7248 16.2962 65.7744 16.7333 65.7329 17.1665C65.7752 17.6002 65.7262 18.0379 65.5892 18.4515C65.4522 18.8651 65.2301 19.2454 64.9373 19.5681C64.6445 19.8908 64.2875 20.1487 63.8891 20.3251C63.4907 20.5016 63.0598 20.5927 62.6241 20.5927C62.1884 20.5927 61.7575 20.5016 61.3591 20.3251C60.9607 20.1487 60.6037 19.8908 60.3109 19.5681C60.0181 19.2454 59.7961 18.8651 59.6591 18.4515C59.5221 18.0379 59.4731 17.6002 59.5153 17.1665ZM64.3947 17.1665C64.3947 15.7376 63.7528 14.9019 62.6263 14.9019C61.4954 14.9019 60.8592 15.7376 60.8592 17.1665C60.8592 18.6069 61.4954 19.4361 62.6263 19.4361C63.7529 19.4361 64.3948 18.6012 64.3948 17.1665H64.3947Z" fill="white"/>
<path d="M73.9978 20.4652H72.6482L71.2858 15.6101H71.1828L69.8261 20.4652H68.4893L66.6722 13.873H67.9918L69.1727 18.9033H69.27L70.6253 13.873H71.8734L73.2287 18.9033H73.3316L74.5068 13.873H75.8078L73.9978 20.4652Z" fill="white"/>
<path d="M77.3361 13.8732H78.5884V14.9205H78.6857C78.8506 14.5443 79.1288 14.229 79.4814 14.0185C79.834 13.808 80.2435 13.7127 80.6529 13.746C80.9736 13.7219 81.2957 13.7702 81.5952 13.8875C81.8948 14.0048 82.1641 14.1879 82.3832 14.4234C82.6023 14.6588 82.7657 14.9406 82.8611 15.2478C82.9566 15.5549 82.9817 15.8797 82.9346 16.1979V20.4653H81.6336V16.5246C81.6336 15.4652 81.1733 14.9383 80.2111 14.9383C79.9933 14.9282 79.7759 14.9653 79.5738 15.047C79.3717 15.1287 79.1897 15.2532 79.0402 15.4119C78.8907 15.5705 78.7772 15.7597 78.7076 15.9663C78.6381 16.1729 78.614 16.3921 78.637 16.6089V20.4654H77.3361L77.3361 13.8732Z" fill="white"/>
<path d="M85.0077 11.2998H86.3087V20.4654H85.0077V11.2998Z" fill="white"/>
<path d="M88.1172 17.1666C88.0758 16.7334 88.1254 16.2963 88.2628 15.8833C88.4002 15.4703 88.6224 15.0907 88.9152 14.7686C89.2079 14.4465 89.5647 14.1892 89.9627 14.0131C90.3607 13.8371 90.7912 13.7461 91.2264 13.7461C91.6616 13.7461 92.092 13.8371 92.49 14.0131C92.888 14.1892 93.2448 14.4465 93.5376 14.7686C93.8303 15.0907 94.0525 15.4703 94.1899 15.8833C94.3274 16.2963 94.3769 16.7334 94.3355 17.1666C94.3777 17.6003 94.3287 18.038 94.1916 18.4516C94.0546 18.8652 93.8325 19.2456 93.5397 19.5683C93.2469 19.8909 92.8898 20.1488 92.4914 20.3252C92.093 20.5017 91.6621 20.5928 91.2264 20.5928C90.7907 20.5928 90.3597 20.5017 89.9613 20.3252C89.5629 20.1488 89.2059 19.8909 88.9131 19.5683C88.6202 19.2456 88.3982 18.8652 88.2611 18.4516C88.124 18.038 88.075 17.6003 88.1172 17.1666ZM92.9966 17.1666C92.9966 15.7377 92.3547 14.902 91.2282 14.902C90.0973 14.902 89.4611 15.7377 89.4611 17.1666C89.4611 18.607 90.0973 19.4362 91.2282 19.4362C92.3547 19.4362 92.9967 18.6013 92.9967 17.1666H92.9966Z" fill="white"/>
<path d="M95.7051 18.6012C95.7051 17.4146 96.5886 16.7305 98.1569 16.6333L99.9426 16.5304V15.9614C99.9426 15.2651 99.4822 14.8719 98.593 14.8719C97.8667 14.8719 97.3635 15.1386 97.2191 15.6047H95.9596C96.0925 14.4724 97.1576 13.7461 98.653 13.7461C100.306 13.7461 101.238 14.5688 101.238 15.9614V20.4655H99.9855V19.5391H99.8826C99.6736 19.8714 99.3802 20.1423 99.0324 20.3242C98.6845 20.506 98.2946 20.5923 97.9025 20.5741C97.6257 20.6029 97.346 20.5734 97.0814 20.4874C96.8168 20.4015 96.5731 20.2611 96.3661 20.0752C96.159 19.8893 95.9932 19.6621 95.8794 19.4082C95.7656 19.1544 95.7062 18.8795 95.7051 18.6012ZM99.9426 18.0379V17.4868L98.3328 17.5897C97.425 17.6505 97.0132 17.9593 97.0132 18.5405C97.0132 19.1338 97.5279 19.479 98.2356 19.479C98.443 19.5 98.6525 19.4791 98.8516 19.4175C99.0507 19.3558 99.2354 19.2548 99.3946 19.1203C99.5539 18.9859 99.6845 18.8208 99.7786 18.6348C99.8727 18.4489 99.9285 18.2459 99.9426 18.0379Z" fill="white"/>
<path d="M102.948 17.1665C102.948 15.0834 104.019 13.7639 105.684 13.7639C106.096 13.7449 106.505 13.8435 106.863 14.0483C107.221 14.2531 107.513 14.5556 107.706 14.9204H107.803V11.2998H109.104V20.4654H107.857V19.4239H107.754C107.547 19.7862 107.245 20.0849 106.88 20.2876C106.515 20.4904 106.101 20.5894 105.684 20.574C104.007 20.5741 102.948 19.2545 102.948 17.1665ZM104.292 17.1665C104.292 18.5647 104.951 19.406 106.053 19.406C107.15 19.406 107.827 18.5525 107.827 17.1722C107.827 15.7983 107.142 14.9326 106.053 14.9326C104.958 14.9326 104.292 15.7797 104.292 17.1665H104.292Z" fill="white"/>
<path d="M114.487 17.1665C114.445 16.7333 114.495 16.2962 114.632 15.8832C114.77 15.4703 114.992 15.0906 115.284 14.7686C115.577 14.4465 115.934 14.1892 116.332 14.0131C116.73 13.8371 117.16 13.7461 117.595 13.7461C118.031 13.7461 118.461 13.8371 118.859 14.0131C119.257 14.1892 119.614 14.4465 119.906 14.7686C120.199 15.0906 120.421 15.4703 120.559 15.8832C120.696 16.2962 120.746 16.7333 120.704 17.1665C120.746 17.6002 120.697 18.0379 120.56 18.4515C120.423 18.8651 120.201 19.2454 119.909 19.5681C119.616 19.8908 119.259 20.1487 118.86 20.3251C118.462 20.5016 118.031 20.5927 117.595 20.5927C117.16 20.5927 116.729 20.5016 116.33 20.3251C115.932 20.1487 115.575 19.8908 115.282 19.5681C114.989 19.2454 114.767 18.8651 114.63 18.4515C114.493 18.0379 114.444 17.6002 114.487 17.1665ZM119.366 17.1665C119.366 15.7376 118.724 14.9019 117.598 14.9019C116.467 14.9019 115.831 15.7376 115.831 17.1665C115.831 18.6069 116.467 19.4361 117.598 19.4361C118.724 19.4361 119.366 18.6012 119.366 17.1665Z" fill="white"/>
<path d="M122.45 13.8732H123.702V14.9205H123.799C123.964 14.5443 124.243 14.229 124.595 14.0185C124.948 13.808 125.357 13.7127 125.767 13.746C126.087 13.7219 126.409 13.7702 126.709 13.8875C127.009 14.0048 127.278 14.1879 127.497 14.4234C127.716 14.6588 127.879 14.9406 127.975 15.2478C128.07 15.5549 128.095 15.8797 128.048 16.1979V20.4653H126.747V16.5246C126.747 15.4652 126.287 14.9383 125.325 14.9383C125.107 14.9282 124.89 14.9653 124.688 15.047C124.485 15.1287 124.303 15.2532 124.154 15.4119C124.004 15.5705 123.891 15.7597 123.821 15.9663C123.752 16.1729 123.728 16.3921 123.751 16.6089V20.4654H122.45V13.8732Z" fill="white"/>
<path d="M135.4 12.2319V13.9032H136.828V14.9991H135.4V18.3888C135.4 19.0793 135.684 19.3817 136.332 19.3817C136.498 19.3812 136.663 19.3711 136.828 19.3517V20.4353C136.594 20.4771 136.358 20.4994 136.12 20.5018C134.673 20.5018 134.097 19.9928 134.097 18.7219V14.999H133.051V13.9031H134.097V12.2319H135.4Z" fill="white"/>
<path d="M138.605 11.2998H139.895V14.9326H139.997C140.17 14.5529 140.456 14.2359 140.816 14.0245C141.176 13.8132 141.592 13.7179 142.008 13.7517C142.327 13.7343 142.646 13.7876 142.942 13.9077C143.238 14.0278 143.504 14.2118 143.721 14.4465C143.938 14.6813 144.1 14.9609 144.196 15.2657C144.292 15.5704 144.32 15.8926 144.278 16.2093V20.4654H142.976V16.5302C142.976 15.4773 142.485 14.944 141.566 14.944C141.342 14.9257 141.117 14.9564 140.907 15.0341C140.696 15.1117 140.505 15.2345 140.347 15.3937C140.189 15.5528 140.068 15.7447 139.992 15.9557C139.915 16.1667 139.886 16.3918 139.906 16.6153V20.4654H138.605L138.605 11.2998Z" fill="white"/>
<path d="M151.864 18.6857C151.687 19.2882 151.304 19.8093 150.782 20.158C150.26 20.5066 149.631 20.6606 149.007 20.5929C148.573 20.6043 148.141 20.5211 147.742 20.3491C147.343 20.177 146.987 19.9202 146.697 19.5965C146.407 19.2727 146.191 18.8898 146.065 18.4743C145.938 18.0588 145.903 17.6206 145.962 17.1903C145.904 16.7586 145.94 16.3195 146.066 15.9027C146.193 15.486 146.408 15.1013 146.696 14.7747C146.984 14.4481 147.339 14.1873 147.737 14.0098C148.135 13.8324 148.566 13.7425 149.002 13.7462C150.836 13.7462 151.942 14.9994 151.942 17.0694V17.5234H147.287V17.5963C147.267 17.8382 147.297 18.0817 147.377 18.3112C147.456 18.5407 147.582 18.7511 147.747 18.9289C147.913 19.1067 148.113 19.248 148.336 19.3437C148.56 19.4395 148.8 19.4875 149.043 19.4848C149.354 19.5222 149.669 19.4662 149.949 19.3238C150.228 19.1815 150.459 18.9594 150.611 18.6856L151.864 18.6857ZM147.287 16.5612H150.617C150.633 16.34 150.603 16.1177 150.529 15.9088C150.454 15.6999 150.337 15.5088 150.184 15.348C150.031 15.1872 149.846 15.0601 149.641 14.9749C149.437 14.8898 149.216 14.8484 148.994 14.8535C148.769 14.8507 148.546 14.8929 148.338 14.9777C148.129 15.0626 147.94 15.1883 147.781 15.3474C147.622 15.5066 147.496 15.696 147.411 15.9044C147.327 16.1129 147.284 16.3362 147.287 16.5612H147.287Z" fill="white"/>
</svg>
