<svg width="189" height="56" viewBox="0 0 189 56" fill="none" xmlns="http://www.w3.org/2000/svg">
<rect width="189" height="56" rx="10" fill="black"/>
<path d="M66.3854 14.3406C66.3854 15.5138 66.0382 16.4475 65.3424 17.1447C64.5514 17.9735 63.5224 18.3879 62.2568 18.3879C61.043 18.3879 60.0127 17.9679 59.1657 17.1265C58.3159 16.2866 57.8931 15.2436 57.8931 14.0004C57.8931 12.7558 58.3159 11.7142 59.1657 10.8728C60.0127 10.0328 61.043 9.61138 62.2568 9.61138C62.8574 9.61138 63.4342 9.72898 63.9802 9.96418C64.5276 10.1994 64.9658 10.5116 65.2948 10.9022L64.5556 11.6414C63.9998 10.9778 63.234 10.6446 62.2568 10.6446C61.372 10.6446 60.6077 10.9554 59.9623 11.577C59.3169 12.2 58.9949 13.0064 58.9949 14.0004C58.9949 14.993 59.3169 15.8008 59.9623 16.4223C60.6077 17.0453 61.372 17.3547 62.2568 17.3547C63.1948 17.3547 63.976 17.0425 64.6032 16.4167C65.0092 16.0094 65.243 15.4438 65.306 14.7158H62.2568V13.7064H66.3266C66.3658 13.9262 66.3854 14.1376 66.3854 14.3406Z" fill="white"/>
<path d="M66.3854 14.3406C66.3854 15.5138 66.0382 16.4475 65.3424 17.1447C64.5514 17.9735 63.5224 18.3879 62.2568 18.3879C61.043 18.3879 60.0127 17.9679 59.1657 17.1265C58.3159 16.2866 57.8931 15.2436 57.8931 14.0004C57.8931 12.7558 58.3159 11.7142 59.1657 10.8728C60.0127 10.0328 61.043 9.61138 62.2568 9.61138C62.8574 9.61138 63.4342 9.72898 63.9802 9.96418C64.5276 10.1994 64.9658 10.5116 65.2948 10.9022L64.5556 11.6414C63.9998 10.9778 63.234 10.6446 62.2568 10.6446C61.372 10.6446 60.6077 10.9554 59.9623 11.577C59.3169 12.2 58.9949 13.0064 58.9949 14.0004C58.9949 14.993 59.3169 15.8008 59.9623 16.4223C60.6077 17.0453 61.372 17.3547 62.2568 17.3547C63.1948 17.3547 63.976 17.0425 64.6032 16.4167C65.0092 16.0094 65.243 15.4438 65.306 14.7158H62.2568V13.7064H66.3266C66.3658 13.9262 66.3854 14.1376 66.3854 14.3406Z" fill="white"/>
<path d="M72.8385 10.8323H69.0137V13.4951H72.4633V14.5045H69.0137V17.1672H72.8385V18.2004H67.9343V9.80048H72.8385V10.8323Z" fill="white"/>
<path d="M72.8385 10.8323H69.0137V13.4951H72.4633V14.5045H69.0137V17.1672H72.8385V18.2004H67.9343V9.80048H72.8385V10.8323Z" fill="white"/>
<path d="M77.3899 18.2H76.3105V10.8318H73.9641V9.79999H79.7363V10.8318H77.3899V18.2Z" fill="white"/>
<path d="M77.3899 18.2H76.3105V10.8318H73.9641V9.79999H79.7363V10.8318H77.3899V18.2Z" fill="white"/>
<path d="M83.9126 9.79999H84.992V18.2H83.9126V9.79999Z" fill="white"/>
<path d="M89.7793 18.2H88.6999V10.8318H86.3535V9.79999H92.1257V10.8318H89.7793V18.2Z" fill="white"/>
<path d="M89.7793 18.2H88.6999V10.8318H86.3535V9.79999H92.1257V10.8318H89.7793V18.2Z" fill="white"/>
<path d="M97.6904 16.4111C98.312 17.0411 99.0722 17.3547 99.9724 17.3547C100.873 17.3547 101.633 17.0411 102.254 16.4111C102.876 15.7812 103.188 14.9776 103.188 14.0004C103.188 13.0232 102.876 12.2182 102.254 11.5896C101.633 10.9596 100.873 10.6446 99.9724 10.6446C99.0722 10.6446 98.312 10.9596 97.6904 11.5896C97.0702 12.2182 96.758 13.0232 96.758 14.0004C96.758 14.9776 97.0702 15.7812 97.6904 16.4111ZM103.052 17.1139C102.226 17.9637 101.2 18.3879 99.9724 18.3879C98.7446 18.3879 97.7184 17.9637 96.8938 17.1139C96.0678 16.2656 95.6562 15.2282 95.6562 14.0004C95.6562 12.7726 96.0678 11.7338 96.8938 10.8854C97.7184 10.037 98.7446 9.61138 99.9724 9.61138C101.193 9.61138 102.217 10.0384 103.047 10.891C103.876 11.7436 104.29 12.7796 104.29 14.0004C104.29 15.2282 103.877 16.2656 103.052 17.1139Z" fill="white"/>
<path d="M97.6904 16.4111C98.312 17.0411 99.0722 17.3547 99.9724 17.3547C100.873 17.3547 101.633 17.0411 102.254 16.4111C102.876 15.7812 103.188 14.9776 103.188 14.0004C103.188 13.0232 102.876 12.2182 102.254 11.5896C101.633 10.9596 100.873 10.6446 99.9724 10.6446C99.0722 10.6446 98.312 10.9596 97.6904 11.5896C97.0702 12.2182 96.758 13.0232 96.758 14.0004C96.758 14.9776 97.0702 15.7812 97.6904 16.4111ZM103.052 17.1139C102.226 17.9637 101.2 18.3879 99.9724 18.3879C98.7446 18.3879 97.7184 17.9637 96.8938 17.1139C96.0678 16.2656 95.6562 15.2282 95.6562 14.0004C95.6562 12.7726 96.0678 11.7338 96.8938 10.8854C97.7184 10.037 98.7446 9.61138 99.9724 9.61138C101.193 9.61138 102.217 10.0384 103.047 10.891C103.876 11.7436 104.29 12.7796 104.29 14.0004C104.29 15.2282 103.877 16.2656 103.052 17.1139Z" fill="white"/>
<path d="M105.805 18.2V9.79999H107.118L111.2 16.3338H111.248L111.2 14.7154V9.79999H112.281V18.2H111.154L106.883 11.3484H106.836L106.883 12.9682V18.2H105.805Z" fill="white"/>
<path d="M105.805 18.2V9.79999H107.118L111.2 16.3338H111.248L111.2 14.7154V9.79999H112.281V18.2H111.154L106.883 11.3484H106.836L106.883 12.9682V18.2H105.805Z" fill="white"/>
<path d="M149.71 41.9999H152.322V24.4986H149.71V41.9999ZM173.239 30.8028L170.245 38.3907H170.155L167.047 30.8028H164.233L168.894 41.4077L166.238 47.3073H168.961L176.144 30.8028H173.239ZM158.425 40.0119C157.568 40.0119 156.375 39.5849 156.375 38.5251C156.375 37.1756 157.86 36.6576 159.144 36.6576C160.292 36.6576 160.834 36.9054 161.531 37.2428C161.328 38.8639 159.932 40.0119 158.425 40.0119ZM158.74 30.4206C156.848 30.4206 154.888 31.2536 154.079 33.1002L156.397 34.0676C156.893 33.1002 157.816 32.7838 158.784 32.7838C160.135 32.7838 161.509 33.5944 161.531 35.0364V35.2156C161.058 34.9454 160.046 34.5408 158.807 34.5408C156.308 34.5408 153.763 35.9142 153.763 38.4803C153.763 40.8225 155.812 42.3317 158.108 42.3317C159.865 42.3317 160.834 41.5435 161.442 40.6195H161.531V41.9705H164.053V35.2604C164.053 32.1538 161.734 30.4206 158.74 30.4206ZM142.595 32.9336H138.879V26.9346H142.595C144.548 26.9346 145.657 28.5516 145.657 29.9334C145.657 31.29 144.548 32.9336 142.595 32.9336ZM142.528 24.4986H136.268V41.9999H138.879V35.3696H142.528C145.423 35.3696 148.269 33.2724 148.269 29.9334C148.269 26.5944 145.423 24.4986 142.528 24.4986ZM108.394 40.0147C106.59 40.0147 105.079 38.5041 105.079 36.4294C105.079 34.3322 106.59 32.7978 108.394 32.7978C110.177 32.7978 111.574 34.3322 111.574 36.4294C111.574 38.5041 110.177 40.0147 108.394 40.0147ZM111.395 31.7828H111.304C110.717 31.0842 109.59 30.4528 108.169 30.4528C105.191 30.4528 102.463 33.068 102.463 36.4294C102.463 39.7669 105.191 42.3611 108.169 42.3611C109.59 42.3611 110.717 41.7297 111.304 41.0073H111.395V41.8655C111.395 44.1433 110.177 45.3613 108.214 45.3613C106.612 45.3613 105.62 44.2105 105.214 43.2403L102.936 44.1881C103.59 45.7673 105.327 47.7063 108.214 47.7063C111.281 47.7063 113.875 45.9017 113.875 41.5043V30.8126H111.395V31.7828ZM115.68 41.9999H118.297V24.4972H115.68V41.9999ZM122.152 36.2264C122.085 33.9262 123.934 32.753 125.264 32.753C126.303 32.753 127.182 33.271 127.475 34.0158L122.152 36.2264ZM130.272 34.2412C129.777 32.9112 128.265 30.4528 125.175 30.4528C122.107 30.4528 119.559 32.865 119.559 36.407C119.559 39.7445 122.085 42.3611 125.467 42.3611C128.197 42.3611 129.777 40.6923 130.43 39.7221L128.4 38.3683C127.724 39.3609 126.799 40.0147 125.467 40.0147C124.137 40.0147 123.19 39.4057 122.581 38.2115L130.542 34.9174L130.272 34.2412ZM66.8412 32.2798V34.8054H72.885C72.7044 36.2264 72.2312 37.2638 71.5102 37.9847C70.6296 38.8653 69.2534 39.8355 66.8412 39.8355C63.1187 39.8355 60.2095 36.8354 60.2095 33.1142C60.2095 29.3916 63.1187 26.3928 66.8412 26.3928C68.8488 26.3928 70.3146 27.1824 71.3968 28.1974L73.179 26.4152C71.667 24.9718 69.6608 23.8658 66.8412 23.8658C61.7439 23.8658 57.4585 28.0168 57.4585 33.1142C57.4585 38.2115 61.7439 42.3611 66.8412 42.3611C69.5922 42.3611 71.667 41.4581 73.291 39.7669C74.9612 38.0981 75.4792 35.7532 75.4792 33.8576C75.4792 33.271 75.4344 32.7306 75.3434 32.2798H66.8412ZM82.3518 40.0147C80.5472 40.0147 78.9904 38.5265 78.9904 36.407C78.9904 34.2636 80.5472 32.7978 82.3518 32.7978C84.155 32.7978 85.7117 34.2636 85.7117 36.407C85.7117 38.5265 84.155 40.0147 82.3518 40.0147ZM82.3518 30.4528C79.0576 30.4528 76.3738 32.956 76.3738 36.407C76.3738 39.8355 79.0576 42.3611 82.3518 42.3611C85.6445 42.3611 88.3283 39.8355 88.3283 36.407C88.3283 32.956 85.6445 30.4528 82.3518 30.4528ZM95.3899 40.0147C93.5853 40.0147 92.0285 38.5265 92.0285 36.407C92.0285 34.2636 93.5853 32.7978 95.3899 32.7978C97.1945 32.7978 98.7499 34.2636 98.7499 36.407C98.7499 38.5265 97.1945 40.0147 95.3899 40.0147ZM95.3899 30.4528C92.0971 30.4528 89.4133 32.956 89.4133 36.407C89.4133 39.8355 92.0971 42.3611 95.3899 42.3611C98.6827 42.3611 101.366 39.8355 101.366 36.407C101.366 32.956 98.6827 30.4528 95.3899 30.4528Z" fill="white"/>
<path d="M29.0039 27.1937L14.0981 43.0136C14.0995 43.0164 14.0995 43.0206 14.1009 43.0234C14.5587 44.7412 16.1267 46.0054 17.9887 46.0054C18.7335 46.0054 19.4321 45.8038 20.0313 45.451L20.0789 45.423L36.8564 35.742L29.0039 27.1937Z" fill="#EA4335"/>
<path d="M44.083 24.4997L44.069 24.4899L36.8255 20.2913L28.6649 27.5531L36.8549 35.7402L44.0592 31.5837C45.322 30.9005 46.1802 29.5691 46.1802 28.0347C46.1802 26.5087 45.3346 25.1843 44.083 24.4997Z" fill="#FBBC04"/>
<path d="M14.0979 12.9878C14.0083 13.3182 13.9607 13.6654 13.9607 14.0238V41.9788C13.9607 42.3372 14.0083 42.6844 14.0993 43.0134L29.516 27.5981L14.0979 12.9878Z" fill="#4285F4"/>
<path d="M29.114 28.0012L36.8279 20.2887L20.07 10.5727C19.461 10.2073 18.7498 9.99731 17.9896 9.99731C16.1276 9.99731 14.5569 11.2643 14.0991 12.9835C14.0991 12.9849 14.0977 12.9863 14.0977 12.9877L29.114 28.0012Z" fill="#34A853"/>
</svg>
