<svg width="864" height="789" viewBox="0 0 864 789" fill="none" xmlns="http://www.w3.org/2000/svg">
<path d="M97.1148 76.851C-47.8852 41.8509 -87.8851 -13.149 -132.385 2.85096C-176.885 18.851 -154.385 610.351 -132.385 658.851C-110.385 707.351 -111.385 721.851 -25.8852 744.851C59.6148 767.851 195.615 793.351 376.115 781.851C556.615 770.351 642.615 675.851 708.115 634.351C773.615 592.851 863.615 553.851 863.615 478.351C863.616 402.851 762.115 303.351 736.615 269.351C711.115 235.351 652.615 184.351 585.115 158.851C517.615 133.351 466.615 127.851 376.115 121.851C285.615 115.851 242.115 111.851 97.1148 76.851Z" fill="#E6ECFA" fill-opacity="0.4"/>
<path d="M0 137.846C56.5305 137.846 112.565 108.459 169.65 104.522C218.671 101.141 266.583 102.356 312.734 118.97C383.062 144.288 444.151 211.636 469.801 279.532C477.326 299.452 484.028 324.514 471.898 343.384C458.896 363.61 428.619 378.741 406.881 387.195C391.898 393.021 338.338 409.958 323.92 396.982C309.909 384.372 302.015 356.33 302.015 338.257C302.015 280.926 356.346 243.896 407.114 228.031C445.225 216.121 484.413 234.323 521.069 234.323C546.192 234.323 617.434 235.875 624.77 202.863C627.698 189.687 634.358 172.611 625.003 160.917C616.454 150.23 591.094 150.43 578.628 150.43C564.837 150.43 546.378 148.953 545.304 167.209C544.381 182.908 541.11 196.999 541.11 213.35C541.11 243.517 542.969 276.267 572.337 293.048C594.976 305.985 615.216 329.402 633.392 347.579C656.04 370.226 683.728 394.755 683.728 429.141C683.728 453.26 686.387 476.489 675.338 498.586C661.489 526.286 640.034 562.504 612.419 578.284C537.744 620.955 440.009 632.69 377.518 561.273C358.319 539.331 334.111 506.572 359.808 480.875C368.518 472.165 400.837 473.418 412.94 473.418C431.736 473.418 444.454 471.375 458.149 485.07C478.362 505.283 485.077 536.919 491.007 563.603C494.926 581.24 494.969 597.616 494.969 616.036C494.969 629.966 460.494 652.384 447.895 657.05C388.725 678.965 332.042 691.54 266.36 691.54C178.542 691.54 106.343 614.988 78.7662 537.27C69.0049 509.761 67.1144 485.382 67.1144 456.406C67.1144 429.027 61.8876 396.791 71.309 370.882C79.0214 349.673 94.2681 330.901 101.604 308.895C108.495 288.222 114.621 259.032 130.034 242.712C146.78 224.982 184.565 193.926 184.565 169.306C184.565 133.946 147.64 142.041 119.547 142.041C80.8894 142.041 79.6983 203.092 79.6983 230.128C79.6983 280.838 118.632 319.398 153.105 353.871C193.382 394.148 226.552 450.382 254.941 499.518C265.489 517.774 281.041 542.05 281.041 563.836C281.041 575.568 272.9 579.867 272.652 588.538C272.033 610.222 274.336 634.686 278.944 655.885C284.586 681.836 285.95 733.056 267.525 753.527C251.943 770.841 204.459 775.433 182.7 775.433C130.536 775.433 33.6126 800.711 4.19465 741.876" stroke="#FFFDFF" stroke-width="16" stroke-linecap="round" stroke-linejoin="round"/>
</svg>
